<?xml version="1.0" encoding="UTF-8" standalone="no"?><!DOCTYPE svg PUBLIC "-//W3C//DTD SVG 1.1//EN" "http://www.w3.org/Graphics/SVG/1.1/DTD/svg11.dtd"><svg width="100%" height="100%" viewBox="0 0 273 291" version="1.1" xmlns="http://www.w3.org/2000/svg" xmlns:xlink="http://www.w3.org/1999/xlink" xml:space="preserve" xmlns:serif="http://www.serif.com/" style="fill-rule:evenodd;clip-rule:evenodd;stroke-linecap:round;stroke-linejoin:round;stroke-miterlimit:1.5;"><g><path d="M136.497,1.516l134.982,71.933l0,143.866l-134.982,71.934l-134.981,-71.934l0,-143.866l134.981,-71.933Z" style="fill:#fff;stroke:#2a3591;stroke-width:3.03px;"/><path d="M265.244,85.084l-124.204,65.547l0,130.358l124.204,-66.719l0,-129.186Zm-257.494,-0.71l124.81,65.621l0,130.994l-124.81,-65.62l0,-130.995Zm157.912,171.996l-0.568,-105.618c0,0 43.071,-22.391 64.516,-33.54c2.462,-1.28 5.418,-1.158 7.766,0.32c2.349,1.477 3.737,4.09 3.649,6.863c0,0 0,0 0,0l-62.083,33.23l0.003,32.113c0,0 35.078,-18.282 52.681,-27.456c2.07,-1.079 4.554,-0.991 6.543,0.231c1.988,1.221 3.189,3.398 3.163,5.731c0,0.001 0,0.001 0,0.001c-0.016,1.387 -0.792,2.653 -2.019,3.298c-10.674,5.604 -60.588,31.812 -60.588,31.812l-0.351,32.823l63.276,-32.895c0,0 0,0 0,0c0.34,7.745 -3.816,14.993 -10.673,18.612c-21.267,11.225 -65.315,34.475 -65.315,34.475Zm-108.707,-27.343l0.923,-91.941c0,0 -14.892,-7.754 -26.139,-13.61c-7.545,-3.929 -12.225,-11.781 -12.092,-20.286c0,0 0,0 0,0c0,0 61.233,32.25 88.008,46.353c7.593,3.999 12.451,11.772 12.718,20.35c0,0 0,0 0,0l-50.218,-26.872c0,0 0,51.767 0,78.037c0,3.154 -1.65,6.079 -4.351,7.709c-2.7,1.631 -6.057,1.729 -8.849,0.26c0,0 0,0 0,0Zm-43.56,-153.853l124.089,-65.399l122.116,65.098l-122.903,64.676l-123.302,-64.375Z" style="fill:#091f9f;"/></g></svg>