<?xml version="1.0" encoding="UTF-8" standalone="no"?><!DOCTYPE svg PUBLIC "-//W3C//DTD SVG 1.1//EN" "http://www.w3.org/Graphics/SVG/1.1/DTD/svg11.dtd"><svg width="100%" height="100%" viewBox="0 0 402 402" version="1.1" xmlns="http://www.w3.org/2000/svg" xmlns:xlink="http://www.w3.org/1999/xlink" xml:space="preserve" xmlns:serif="http://www.serif.com/" style="fill-rule:evenodd;clip-rule:evenodd;stroke-linejoin:round;stroke-miterlimit:1.41421;"><path d="M301.064,0c55.388,0 100.355,44.967 100.355,100.355l0,200.709c0,55.388 -44.967,100.355 -100.355,100.355l-200.709,0c-55.388,0 -100.355,-44.967 -100.355,-100.355l0,-200.709c0,-55.388 44.967,-100.355 100.355,-100.355l200.709,0Zm-132.223,284.191l-4.777,4.936c-3.973,-3.857 -7.857,-5.785 -11.652,-5.785c-2.412,0 -4.479,0.796 -6.199,2.388c-1.721,1.592 -2.581,3.45 -2.581,5.572c0,1.876 0.709,3.662 2.127,5.361c1.419,1.733 4.397,3.768 8.935,6.103c5.531,2.866 9.289,5.625 11.275,8.279c1.95,2.689 2.925,5.714 2.925,9.075c0,4.741 -1.666,8.756 -4.997,12.047c-3.331,3.29 -7.494,4.935 -12.49,4.935c-3.331,0 -6.512,-0.725 -9.541,-2.176c-3.029,-1.45 -5.536,-3.449 -7.521,-5.997l4.67,-5.307c3.795,4.281 7.82,6.422 12.075,6.422c2.979,0 5.514,-0.955 7.607,-2.866c2.092,-1.91 3.138,-4.157 3.138,-6.74c0,-2.123 -0.691,-4.015 -2.073,-5.678c-1.384,-1.628 -4.504,-3.68 -9.361,-6.157c-5.212,-2.688 -8.758,-5.342 -10.637,-7.96c-1.879,-2.618 -2.819,-5.608 -2.819,-8.969c0,-4.387 1.498,-8.031 4.492,-10.933c2.995,-2.901 6.778,-4.351 11.35,-4.351c5.316,0 10.667,2.6 16.054,7.801Zm42.191,0l-4.777,4.936c-3.973,-3.857 -7.857,-5.785 -11.652,-5.785c-2.412,0 -4.479,0.796 -6.199,2.388c-1.721,1.592 -2.581,3.45 -2.581,5.572c0,1.876 0.709,3.662 2.127,5.361c1.419,1.733 4.397,3.768 8.935,6.103c5.531,2.866 9.289,5.625 11.275,8.279c1.95,2.689 2.925,5.714 2.925,9.075c0,4.741 -1.666,8.756 -4.997,12.047c-3.331,3.29 -7.494,4.935 -12.49,4.935c-3.331,0 -6.512,-0.725 -9.541,-2.176c-3.029,-1.45 -5.536,-3.449 -7.521,-5.997l4.67,-5.307c3.795,4.281 7.82,6.422 12.075,6.422c2.979,0 5.514,-0.955 7.607,-2.866c2.092,-1.91 3.138,-4.157 3.138,-6.74c0,-2.123 -0.691,-4.015 -2.073,-5.678c-1.384,-1.628 -4.504,-3.68 -9.361,-6.157c-5.212,-2.688 -8.758,-5.342 -10.637,-7.96c-1.879,-2.618 -2.819,-5.608 -2.819,-8.969c0,-4.387 1.498,-8.031 4.492,-10.933c2.995,-2.901 6.778,-4.351 11.35,-4.351c5.316,0 10.667,2.6 16.054,7.801Zm69.947,23.139c-0.071,-7.89 -2.196,-14.471 -6.375,-19.742c-5.878,-7.466 -13.739,-11.198 -23.584,-11.198c-9.561,0 -17.193,3.644 -22.894,10.932c-4.497,5.732 -6.746,12.259 -6.746,19.583c0,7.784 2.656,14.763 7.969,20.937c5.312,6.173 12.677,9.26 22.097,9.26c4.249,0 8.056,-0.645 11.421,-1.937c3.364,-1.291 6.392,-3.175 9.083,-5.652c2.692,-2.476 5.064,-5.731 7.118,-9.765l-6.262,-3.29c-2.267,3.771 -4.375,6.503 -6.323,8.194c-1.949,1.692 -4.313,3.049 -7.094,4.071c-2.781,1.022 -5.641,1.533 -8.581,1.533c-6.093,0 -11.212,-2.144 -15.356,-6.433c-4.145,-4.289 -6.288,-9.786 -6.429,-16.493l51.956,0Zm-155.019,0c-0.071,-7.89 -2.196,-14.471 -6.375,-19.742c-5.878,-7.466 -13.739,-11.198 -23.584,-11.198c-9.561,0 -17.192,3.644 -22.894,10.932c-4.497,5.732 -6.745,12.259 -6.745,19.583c0,7.784 2.656,14.763 7.968,20.937c5.312,6.173 12.677,9.26 22.097,9.26c4.249,0 8.056,-0.645 11.421,-1.937c3.364,-1.291 6.392,-3.175 9.084,-5.652c2.691,-2.476 5.064,-5.731 7.117,-9.765l-6.262,-3.29c-2.267,3.771 -4.375,6.503 -6.323,8.194c-1.949,1.692 -4.313,3.049 -7.094,4.071c-2.781,1.022 -5.641,1.533 -8.581,1.533c-6.093,0 -11.212,-2.144 -15.356,-6.433c-4.145,-4.289 -6.288,-9.786 -6.429,-16.493l51.956,0Zm251.766,-29.454l0,10.614c-2.901,-4.034 -6.271,-7.059 -10.11,-9.075c-3.839,-2.017 -8.128,-3.025 -12.869,-3.025c-8.209,0 -15.232,2.954 -21.069,8.862c-5.838,5.909 -8.757,13.02 -8.757,21.335c0,8.491 2.892,15.7 8.677,21.626c5.785,5.926 12.763,8.889 20.936,8.889c4.6,0 8.837,-0.955 12.711,-2.866c3.874,-1.91 7.368,-4.758 10.481,-8.544l0,9.924l7.324,0l0,-57.74l-7.324,0Zm-78.12,57.74l0,-19.53c0,-10.012 0.46,-16.664 1.38,-19.954c1.203,-4.281 2.954,-7.439 5.254,-9.473c2.3,-2.035 4.688,-3.052 7.165,-3.052c1.061,0 2.37,0.336 3.927,1.009l3.874,-6.263c-2.335,-1.309 -4.529,-1.963 -6.581,-1.963c-2.724,0 -5.342,0.822 -7.854,2.467c-2.512,1.646 -4.9,4.131 -7.165,7.457l0,-8.438l-7.589,0l0,57.74l7.589,0Zm-257.869,0l0,-70.424l17.407,0l0,-7.642l-42.775,0l0,7.642l17.407,0l0,70.424l7.961,0Zm313.62,-52.062c-4.135,0 -7.951,1.016 -11.45,3.048c-3.499,2.033 -6.282,4.886 -8.349,8.562c-2.067,3.675 -3.101,7.562 -3.101,11.662c0,4.064 1.042,7.951 3.127,11.662c2.085,3.71 4.886,6.599 8.402,8.667c3.516,2.067 7.289,3.101 11.318,3.101c4.064,0 7.916,-1.025 11.556,-3.075c3.64,-2.049 6.44,-4.824 8.402,-8.322c1.961,-3.499 2.942,-7.439 2.942,-11.821c0,-6.679 -2.2,-12.263 -6.6,-16.751c-4.4,-4.489 -9.816,-6.733 -16.247,-6.733Zm-82.551,17.354l-43.04,0c1.523,-5.307 3.772,-9.287 6.748,-11.941c4.074,-3.644 8.944,-5.466 14.612,-5.466c3.436,0 6.713,0.725 9.83,2.176c3.117,1.451 5.624,3.361 7.519,5.732c1.895,2.37 3.339,5.537 4.331,9.499Zm-155.019,0l-43.04,0c1.523,-5.307 3.772,-9.287 6.748,-11.941c4.074,-3.644 8.945,-5.466 14.613,-5.466c3.435,0 6.712,0.725 9.829,2.176c3.118,1.451 5.624,3.361 7.519,5.732c1.896,2.37 3.339,5.537 4.331,9.499Zm173.461,-198.492l-87.344,46.094l0,91.672l87.344,-46.918l0,-90.848Zm-181.077,-0.499l87.77,46.146l0,92.119l-87.77,-46.146l0,-92.119Zm111.048,120.952l-0.399,-74.274c0,0 30.288,-15.745 45.369,-23.585c1.731,-0.9 3.81,-0.815 5.462,0.224c1.651,1.04 2.628,2.877 2.565,4.827c0,0 0,0 0,0l-43.658,23.368l0.002,22.583c0,0 24.668,-12.856 37.047,-19.308c1.455,-0.758 3.202,-0.697 4.601,0.162c1.398,0.859 2.243,2.39 2.224,4.031c0,0 0,0 0,0c-0.011,0.975 -0.556,1.866 -1.42,2.319c-7.506,3.942 -42.606,22.372 -42.606,22.372l-0.248,23.082l44.498,-23.133c0,0 0,0 0,0c0.239,5.447 -2.684,10.543 -7.505,13.088c-14.956,7.895 -45.932,24.244 -45.932,24.244Zm-76.446,-19.228l0.649,-64.655c0,0 -10.472,-5.453 -18.382,-9.572c-5.305,-2.762 -8.596,-8.284 -8.503,-14.265c0,0 0,0 0,0c0,0 43.061,22.679 61.89,32.596c5.34,2.813 8.756,8.279 8.943,14.311c0,0.001 0,0.001 0,0.001l-35.314,-18.898c0,0 0,36.404 0,54.878c0,2.218 -1.161,4.275 -3.06,5.421c-1.899,1.147 -4.259,1.216 -6.223,0.183c0,0 0,0 0,0Zm-30.633,-108.194l87.263,-45.99l85.876,45.779l-86.429,45.481l-86.71,-45.27Z" style="fill:#2a3591;"/></svg>